<svg xmlns="http://www.w3.org/2000/svg" viewBox="0 0 1024 1024" width="1024" height="1024">
<!-- Line-art Hyaecord mark (spots and features). Recolour by setting CSS color: uses currentColor. -->
<path fill="currentColor" stroke="none" stroke-width="0" opacity="1" d="M 171.5 119 L 182.5 122 L 195 133.5 L 207 153.5 L 207 155.5 L 211.5 165 Q 217.4 165.6 220 169.5 L 219.5 171 L 216.5 170 L 211.5 170 L 210.5 169 L 202.5 169 Q 200.5 169.5 201 172.5 L 204 178.5 Q 203.3 181.8 205 182.5 L 205 188.5 L 192.5 194 L 190 196.5 L 190 199.5 L 196 211.5 L 195 212.5 L 194 218.5 L 192.5 220 L 178.5 214 Q 177.5 216 173.5 215 L 162.5 211 L 153 202.5 L 148 193.5 L 145 184.5 Q 145.8 181.2 144 180.5 L 144 171.5 L 143 170.5 L 143 164.5 L 144 163.5 L 144 154.5 Q 146 153.5 145 149.5 L 148 140.5 L 154 129.5 L 160.5 123 L 166.5 120 Q 170.5 121 171.5 119 Z " />
<path fill="currentColor" stroke="none" stroke-width="0" opacity="1" d="M 521.5 119 L 530.5 119 L 535.5 121 L 541 125.5 L 546 132.5 L 550 141.5 L 551 149.5 L 552 150.5 L 552 155.5 L 553 156.5 L 553 171.5 L 552 172.5 L 552 178.5 L 551 179.5 L 551 183.5 L 549 189.5 L 544 199.5 L 536.5 208 L 524.5 214 L 513.5 214 L 507.5 219 L 502 208.5 L 507 198.5 L 507 195.5 L 499.5 191 L 491 188.5 L 491 181.5 L 495 172.5 L 495 169.5 L 484.5 169 L 483.5 170 Q 478.7 169.2 476.5 171 L 476 169.5 L 485 163.5 L 486 159.5 L 492 147.5 L 496 142.5 L 497 139.5 L 506.5 128 L 512.5 123 L 521.5 119 Z " />
<path fill="currentColor" stroke="none" stroke-width="0" opacity="1" d="M 464.5 219 L 472.5 219 L 475.5 220 L 483 227.5 L 487 235.5 L 487 243.5 L 484 250.5 L 481.5 253 Q 468.8 261.3 459.5 273 L 454.5 275 L 449.5 275 L 444.5 273 L 441 269.5 L 439 263.5 L 433 252.5 L 432 249.5 L 432 244.5 L 434 238.5 L 439.5 233 L 464.5 219 Z " />
<path fill="currentColor" stroke="none" stroke-width="0" opacity="1" d="M 248.5 228 L 259.5 228 L 262.5 229 L 272.5 234 L 277 238.5 L 279 242.5 L 279 255.5 L 278 256.5 L 277 266.5 L 275 272.5 L 274 284.5 Q 272.3 285.3 273 288.5 L 270.5 292 L 265.5 295 L 257.5 295 L 247 285.5 Q 243.2 275.8 235.5 270 L 229 265.5 L 226 261.5 L 225 258.5 L 225 253.5 L 229 245.5 L 239.5 234 L 248.5 228 Z " />
<path fill="currentColor" stroke="none" stroke-width="0" opacity="1" d="M 519.5 259 L 528.5 259 L 533 262.5 L 533 297.5 L 532 298.5 L 531.5 309 L 524.5 310 L 512.5 314 L 502.5 319 L 495.5 324 Q 487.7 319.3 482 312.5 L 479 306.5 L 479 297.5 L 486 284.5 L 492.5 278 L 503.5 272 L 514.5 262 L 519.5 259 Z " />
<path fill="currentColor" stroke="none" stroke-width="0" opacity="1" d="M 182.5 273 L 190.5 273 L 193.5 274 L 200 279.5 L 202 283.5 L 202 292.5 L 199 298.5 L 186 312.5 L 174.5 332 L 168.5 336 L 160.5 336 L 158 334.5 Q 157.3 331.3 159 330.5 L 159 319.5 L 160 318.5 L 160 309.5 L 161 308.5 L 161 301.5 L 162 300.5 L 162 293.5 L 163 292.5 L 164 279.5 L 165.5 278 L 174.5 275 L 178.5 275 L 182.5 273 Z " />
<path fill="currentColor" stroke="none" stroke-width="0" opacity="1" d="M 416.5 305 L 422.5 305 L 423.5 306 L 428.5 306 L 434.5 308 Q 444.8 312.2 451 320.5 L 457 332.5 Q 456 336.5 458 337.5 L 458 350.5 L 457 351.5 L 456 357.5 L 450 367.5 L 450 369.5 L 455 375.5 L 457 379.5 L 457 382.5 L 455 386.5 L 454 394.5 L 453 395.5 L 453 399.5 L 452 400.5 L 451 419.5 L 445.5 425 L 440.5 429 L 429.5 434 Q 426.2 433.3 425.5 435 L 409.5 435 L 398.5 431 L 386 420.5 L 378.5 408 L 279 408.5 L 277 412.5 L 268.5 421 L 262.5 425 L 252.5 429 Q 249.2 428.3 248.5 430 L 232.5 430 L 218.5 425 L 207 415.5 L 200 401.5 Q 200.7 398.3 199 397.5 L 199 384.5 L 202 375.5 L 208 367.5 L 203 358.5 L 201 352.5 Q 202 348.5 200 347.5 L 200 340.5 L 201 339.5 L 202 331.5 L 206 323.5 L 214.5 314 L 228.5 307 Q 231.7 307.8 232.5 306 L 245.5 306 L 246.5 307 L 256.5 309 L 262.5 312 L 276 324.5 L 280.5 333 L 378.5 333 L 380 331.5 Q 383.8 320.8 392.5 315 L 402.5 309 L 408.5 307 L 411.5 307 L 412.5 306 L 415.5 306 L 416.5 305 Z " />
<path fill="currentColor" stroke="none" stroke-width="0" opacity="1" d="M 533.5 352 L 542.5 352 Q 543.3 353.8 546.5 353 Q 556.2 357.3 562 365.5 L 572 383.5 L 575 392.5 L 576 401.5 L 577 402.5 L 577 417.5 L 576 418.5 L 576 421.5 L 574 427.5 L 571 433.5 L 564.5 441 Q 557 448.5 546 452.5 L 546 458.5 L 547 461.5 Q 550.4 469.6 556 475.5 L 553.5 476 L 552.5 475 L 545.5 474 L 537.5 470 L 526 459.5 L 524.5 457 L 518.5 457 Q 517.8 455.3 514.5 456 Q 506.1 452.9 501 446.5 L 497 440.5 L 493 430.5 Q 494 426.5 492 425.5 L 492 405.5 L 493 404.5 L 493 401.5 L 494 400.5 L 496 390.5 L 501 379.5 L 507 370.5 L 514.5 362 L 524.5 355 L 533.5 352 Z " />
<path fill="currentColor" stroke="none" stroke-width="0" opacity="1" d="M 807.5 368 L 820.5 368 Q 830.2 371.8 836 379.5 L 839 383.5 L 847 401.5 L 848 409.5 L 849 410.5 L 849 428.5 L 848 429.5 L 847 437.5 L 843 446.5 L 833.5 457 L 826.5 460 L 821.5 460 L 818.5 461 Q 817.8 459.3 814.5 460 Q 810.3 465.3 803.5 468 L 797.5 470 L 787.5 470 L 787 469.5 L 791 465.5 L 796 456.5 L 796 452.5 L 789.5 448 L 781 439.5 L 777 432.5 L 776 426.5 L 775 425.5 L 775 414.5 L 776 413.5 L 776 409.5 L 777 408.5 L 778 402.5 L 784 389.5 L 791 379.5 L 797.5 373 L 807.5 368 Z " />
<path fill="currentColor" stroke="none" stroke-width="0" opacity="1" d="M 162.5 387 Q 170 387.5 173 392.5 L 175 395.5 L 181 415.5 L 185 423.5 Q 184.3 426.7 186 427.5 L 186 434.5 Q 183.4 441.9 177.5 446 L 167 455.5 L 159.5 466 L 155 465.5 L 155.5 389 L 161.5 388 L 162.5 387 Z " />
<path fill="currentColor" stroke="none" stroke-width="0" opacity="1" d="M 624.5 428 L 626.5 428 L 636.5 433 L 639 435.5 L 639 439.5 L 637 443.5 L 635 445.5 L 627 461.5 L 623.5 465 L 619.5 465 L 579 444.5 Q 578.5 441.5 580.5 441 L 600.5 434 L 603.5 434 L 604.5 433 L 607.5 433 L 611.5 431 L 614.5 431 L 619.5 429 L 623.5 429 L 624.5 428 Z " />
<path fill="currentColor" stroke="none" stroke-width="0" opacity="1" d="M 705.5 430 L 721.5 430 L 722.5 431 L 729.5 432 L 739.5 437 L 751 447.5 L 754 451.5 L 760 464.5 L 762 479.5 L 767 491.5 L 767 502.5 L 762 512.5 L 753.5 523 Q 746.7 529.2 737.5 533 L 724.5 536 L 724 534.5 Q 735.5 530 742 520.5 L 744 517.5 L 742.5 517 L 736.5 522 L 724.5 527 Q 721.3 526.3 720.5 528 L 700.5 528 L 699.5 527 L 693.5 526 L 683.5 521 Q 675.7 516.3 670 509.5 L 665 502.5 L 655 479.5 L 647 470.5 L 647 468.5 L 648.5 466 L 660.5 461 L 669 453.5 L 674.5 447 L 685.5 438 L 695.5 433 L 701.5 431 L 704.5 431 L 705.5 430 Z M 708 442 L 697 446 L 690 451 Q 683 457 679 467 L 678 476 L 677 477 L 678 490 L 683 501 L 694 511 L 707 516 L 720 516 Q 720 514 724 515 L 733 511 L 737 508 L 743 501 L 747 493 L 748 487 L 749 486 L 749 473 L 748 472 L 748 469 L 746 463 L 743 458 Q 737 449 727 444 L 721 443 L 720 442 L 708 442 Z " />
<path fill="currentColor" stroke="none" stroke-width="0" opacity="1" d="M 225.5 443 L 241.5 444 L 242.5 443 L 250.5 443 Q 257.9 445.6 262 451.5 L 264 455.5 L 264 476.5 L 265 477.5 L 265 490.5 L 266 491.5 L 266 498.5 L 261.5 504 L 260 504.5 Q 260.6 508.6 258.5 510 L 256 508.5 L 253.5 505 L 248.5 503 L 241 495.5 Q 235.6 485.9 227.5 479 Q 218.1 474.4 212 466.5 L 211 459.5 L 210 458.5 L 211 457.5 Q 210.3 453.3 212 451.5 L 216.5 447 L 225.5 443 Z " />
<path fill="currentColor" stroke="none" stroke-width="0" opacity="1" d="M 719.5 466 Q 727.5 464.5 729 469.5 L 732 478.5 L 732 483.5 Q 729.7 484.7 731 489.5 L 728 495.5 L 725.5 498 Q 723.7 499.7 719.5 499 L 716 496.5 L 713 489.5 L 713 484.5 L 712 481.5 L 713 480.5 L 713 475.5 L 714 472.5 L 719.5 466 Z " />
<path fill="currentColor" stroke="none" stroke-width="0" opacity="1" d="M 414.5 468 L 421.5 468 L 424.5 469 L 431 474.5 L 433 479.5 L 433 484.5 L 431 490.5 L 408.5 514 L 404.5 516 L 398.5 516 L 394 512.5 L 393 506.5 L 389 496.5 L 389 493.5 L 387 487.5 Q 388.8 486.8 388 483.5 L 391.5 479 L 399.5 475 L 401.5 475 L 414.5 468 Z " />
<path fill="currentColor" stroke="none" stroke-width="0" opacity="1" d="M 830.5 478 L 843.5 478 Q 844.5 480 848.5 479 L 853.5 481 L 859 486.5 L 861 490.5 L 861 500.5 L 860 501.5 L 860 505.5 L 859 506.5 L 859 509.5 L 856 518.5 L 848 534.5 Q 839.4 548.9 827.5 560 L 813.5 571 L 801.5 577 L 798.5 577 L 793.5 579 L 778.5 579 L 777.5 578 L 770.5 577 L 745.5 565 L 737.5 563 L 731.5 560 L 728.5 560 L 727.5 559 L 724.5 559 L 715.5 556 L 703.5 555 L 702.5 554 L 670.5 554 L 669.5 555 L 664.5 555 L 663.5 556 L 655.5 557 L 643.5 561 L 629.5 568 Q 614.9 577.4 604 590.5 L 595 603.5 L 587 620.5 L 583 632.5 L 583 635.5 L 581 640.5 L 581 644.5 L 580 645.5 L 580 651.5 L 579 652.5 L 579 662.5 L 578 663.5 L 578 670.5 L 579 671.5 L 579 681.5 L 580 682.5 L 581 692.5 L 582 693.5 L 582 696.5 L 583 697.5 L 583 700.5 L 586 709.5 L 592 721.5 L 597 728.5 L 608.5 740 L 622.5 748 L 623 733.5 L 619 721.5 L 620.5 722 Q 629.4 723.6 633 730.5 L 638 741.5 Q 636.8 746.2 639 747.5 L 639 759.5 L 638 760.5 L 638 768.5 L 637 769.5 L 637 786.5 L 638 787.5 L 638 791.5 L 640 797.5 L 643 803.5 L 649.5 811 L 656.5 816 L 663.5 819 L 672.5 820 L 673.5 821 L 683.5 821 L 684.5 820 L 693.5 819 L 707.5 813 Q 716.7 807.7 723 799.5 L 728 792.5 L 733 782.5 L 736.5 771 L 737 776.5 L 736 777.5 L 736 782.5 L 735 783.5 L 735 786.5 L 732 795.5 L 727 805.5 Q 721.3 815.3 712.5 822 L 705.5 827 L 692.5 833 L 684.5 834 L 683.5 835 L 665.5 835 L 664.5 834 L 660.5 834 L 651.5 831 L 643.5 827 L 629 813.5 L 623 802.5 L 620 793.5 L 620 787.5 L 619 786.5 L 619 770.5 Q 621 769.5 620 765.5 L 600.5 756 L 584 741.5 L 573 725.5 Q 571.8 718.7 568 714.5 L 565 705.5 L 562.5 693 L 561 693.5 L 558 699.5 L 554.5 703 Q 549 704 546.5 702 L 544.5 700 L 537.5 697 L 509.5 680 L 497.5 674 L 485 665.5 Q 483.3 663.7 484 659.5 L 496.5 637 L 525.5 620 L 534 613.5 L 515 594.5 L 515 589.5 L 525 570.5 L 530.5 564 L 535.5 564 L 571.5 584 L 573.5 586 L 582.5 590 Q 590.8 577.8 601.5 568 L 620.5 554 L 636.5 546 L 641.5 545 L 647.5 542 L 650.5 542 L 655.5 540 L 659.5 540 L 660.5 539 L 664.5 539 L 665.5 538 L 673.5 538 L 674.5 537 L 696.5 537 L 697.5 538 L 706.5 538 L 707.5 539 L 713.5 539 L 714.5 540 L 718.5 540 L 719.5 541 L 727.5 542 L 731.5 544 L 734.5 544 L 738.5 546 L 744.5 547 L 747.5 549 L 752.5 550 L 757.5 553 L 759.5 553 L 762.5 555 L 774.5 559 Q 779.3 557.7 780.5 560 L 789.5 560 L 790.5 559 L 798.5 558 L 807.5 554 L 821 541.5 L 826 532.5 L 826 522.5 L 819.5 515 Q 811.5 512.5 807 506.5 L 805 503.5 L 804 494.5 L 806 489.5 L 811.5 484 L 821.5 480 L 829.5 479 L 830.5 478 Z M 561 649 L 545 659 L 556 665 L 560 666 L 560 655 L 561 654 L 561 649 Z " />
<path fill="currentColor" stroke="none" stroke-width="0" opacity="1" d="M 579.5 480 L 592.5 480 Q 593.3 481.8 596.5 481 L 604.5 485 L 612 492.5 L 616 500.5 L 616 510.5 Q 613.4 517.9 607.5 522 L 602.5 525 L 600.5 525 L 595.5 528 L 586.5 531 L 577.5 536 L 571.5 537 L 570.5 538 L 560.5 538 Q 553.6 535.4 549 530.5 L 546 525.5 L 544 515.5 Q 546.3 514.3 545 509.5 L 549 500.5 L 558.5 490 L 569.5 483 L 575.5 481 L 578.5 481 L 579.5 480 Z " />
<path fill="currentColor" stroke="none" stroke-width="0" opacity="1" d="M 479.5 501 Q 485.3 503.7 489 508.5 L 490 511.5 L 490 517.5 L 494 528.5 L 494 533.5 L 492 538.5 L 486.5 544 L 482.5 546 L 475.5 547 L 474.5 546 L 468.5 545 L 456.5 539 L 454 536.5 L 468 514.5 L 479.5 501 Z " />
<path fill="currentColor" stroke="none" stroke-width="0" opacity="1" d="M 157.5 516 L 159 516.5 L 154 525.5 L 151 534.5 L 149 549.5 L 150 550.5 L 150 559.5 Q 151.8 560.3 151 563.5 L 154 569.5 L 154 571.5 L 159 579.5 L 154.5 580 L 146.5 568 L 146 575.5 L 135.5 594 Q 131.8 594.8 131 592.5 L 127 580.5 L 126 567.5 L 127 564.5 Q 125 563.5 127 562.5 L 127 558.5 L 130.5 553 L 134.5 552 L 140 555.5 L 143.5 562 L 144 557.5 L 143 556.5 L 143 542.5 L 144 541.5 L 145 533.5 L 149 525.5 L 157.5 516 Z " />
<path fill="currentColor" stroke="none" stroke-width="0" opacity="1" d="M 202.5 525 L 203 527.5 L 200 532.5 L 198 538.5 L 198 541.5 L 197 542.5 Q 198.3 547.3 196 548.5 L 196 563.5 L 197 564.5 L 197 568.5 L 198 569.5 L 199 575.5 L 205.5 587 L 207 586.5 L 206 585.5 L 206 578.5 L 209 570.5 L 211.5 568 L 215.5 566 L 219.5 566 L 222.5 567 L 229 573.5 L 230 576.5 L 230 585.5 L 221 604.5 L 217.5 608 L 212 603.5 L 206.5 588 L 204.5 588 L 201.5 585 L 199.5 585 L 195 580.5 L 190 569.5 Q 191 565.5 189 564.5 L 189 550.5 L 190 549.5 L 190 545.5 L 192 539.5 L 195 533.5 L 202.5 525 Z " />
<path fill="currentColor" stroke="none" stroke-width="0" opacity="1" d="M 402.5 542 L 403 545.5 L 401 551.5 L 401 561.5 L 402 562.5 L 402 566.5 L 403 567.5 L 404 573.5 L 409 581.5 L 409 583.5 L 407.5 587 L 402 581.5 L 398 573.5 L 397 567.5 L 396 566.5 L 396 554.5 L 399 546.5 L 402.5 542 Z " />
<path fill="currentColor" stroke="none" stroke-width="0" opacity="1" d="M 172.5 564 L 176.5 565 L 182 569.5 L 186 577.5 L 186 584.5 L 176 604.5 L 173.5 607 Q 169.5 607.5 169 604.5 L 164 592.5 L 164 588.5 L 162 582.5 L 163 581.5 L 163 574.5 L 164 571.5 L 169.5 565 L 172.5 564 Z " />
<path fill="currentColor" stroke="none" stroke-width="0" opacity="1" d="M 390.5 574 Q 397 575.5 400 580.5 L 406 587.5 L 407 590.5 L 404 598.5 L 403 605.5 L 401.5 608 L 394 601.5 L 387 586.5 L 387 576.5 L 390.5 574 Z " />
<path fill="currentColor" stroke="none" stroke-width="0" opacity="1" d="M 689.5 578 Q 697.5 576.5 700 580.5 L 699.5 588 L 698.5 580 Q 695.7 577.8 689.5 579 L 689.5 578 Z " />
<path fill="currentColor" stroke="none" stroke-width="0" opacity="1" d="M 459.5 591 L 467.5 591 Q 473.7 593.3 477 598.5 L 479 602.5 L 480 611.5 L 478 617.5 L 472.5 623 L 456.5 633 L 453.5 634 L 446.5 634 Q 440.3 631.7 437 626.5 L 433 618.5 L 433 608.5 Q 435 603 439.5 600 L 443.5 599 L 459.5 591 Z " />
<path fill="currentColor" stroke="none" stroke-width="0" opacity="1" d="M 435.5 697 L 448.5 697 L 449.5 698 L 452.5 698 L 461.5 701 L 476.5 708 L 485 715.5 L 491 726.5 Q 490.3 729.8 492 730.5 L 492 739.5 L 491 740.5 L 491 744.5 L 486 758.5 Q 481.5 766.5 474.5 772 L 463.5 778 L 454.5 779 L 453.5 780 L 445.5 780 L 444.5 781 L 441 775.5 L 441 773.5 L 435 761.5 L 433 753.5 L 430 747.5 L 430 744.5 L 427 737.5 L 427 734.5 L 426 733.5 L 426 730.5 L 423 721.5 L 422 711.5 L 421 710.5 L 421 703.5 L 431.5 698 Q 434.7 698.8 435.5 697 Z " />
<path fill="currentColor" stroke="none" stroke-width="0" opacity="1" d="M 681.5 698 L 683.5 698 L 687 701.5 L 690 705.5 L 696 718.5 L 696 721.5 L 698 726.5 L 698 731.5 L 699 732.5 L 699 745.5 L 698 746.5 L 698 752.5 Q 696.3 753.3 697 756.5 L 690.5 771 L 690 764.5 L 691 763.5 L 691 742.5 L 690 741.5 L 690 734.5 Q 688 733.5 689 729.5 L 685 717.5 L 679 707.5 L 673 701.5 L 681.5 698 Z " />
<path fill="currentColor" stroke="none" stroke-width="0" opacity="1" d="M 810.5 704 L 822.5 704 L 827.5 706 L 834 711.5 L 840 723.5 L 860 755.5 L 862 760.5 L 849.5 767 Q 846.3 766.2 845.5 768 L 833.5 768 L 828.5 766 L 823 761.5 L 820 755.5 L 819 748.5 L 820 747.5 L 820 744.5 L 822 738.5 L 826 732.5 L 831.5 727 L 835 724.5 L 827.5 721 L 813.5 721 L 802.5 725 L 777.5 744 L 760.5 755 L 744.5 763 L 737.5 765 L 737 748.5 L 760.5 737 L 796.5 710 L 803.5 706 L 809.5 705 L 810.5 704 Z " />
<path fill="currentColor" stroke="none" stroke-width="0" opacity="1" d="M 536.5 722 L 546.5 722 L 553 727.5 L 555 734.5 L 553 740.5 L 548.5 745 L 543.5 747 L 537.5 747 L 531 743.5 L 528 738.5 L 528 730.5 L 534.5 723 L 536.5 722 Z " />
<path fill="currentColor" stroke="none" stroke-width="0" opacity="1" d="M 538.5 766 L 545.5 769 L 547.5 771 L 575.5 786 L 580.5 790 L 599.5 800 L 604 803.5 L 605 808.5 L 594 829.5 L 589.5 834 L 586.5 835 L 571 846.5 L 584 860.5 L 584 864.5 L 572 887.5 L 567.5 892 L 561.5 891 L 534.5 878 L 514.5 865 L 498 851.5 L 507 834.5 L 510.5 831 L 529.5 820 L 538 813.5 L 522 796.5 Q 520.3 794.7 521 790.5 L 533.5 768 L 538.5 766 Z " />
<path fill="currentColor" stroke="none" stroke-width="0" opacity="1" d="M 766.5 766 L 771.5 766 L 777.5 769 L 797.5 781 L 826.5 796 L 829 798.5 L 830 803.5 L 821 820.5 L 815.5 828 L 792.5 840 L 786 844.5 L 801.5 854 L 806 858.5 L 806 862.5 L 792.5 886 Q 790.7 887.7 786.5 887 L 755.5 870 L 753.5 868 L 746.5 865 L 737.5 859 L 730.5 856 L 725 851.5 Q 724 846 726 843.5 L 732 834.5 L 735 827.5 L 739.5 823 L 747.5 820 L 749.5 818 L 769 807.5 L 752 793.5 L 752 789.5 L 764.5 767 L 766.5 766 Z " />
<path fill="currentColor" stroke="none" stroke-width="0" opacity="1" d="M 669.5 865 L 675.5 865 L 676.5 866 L 683.5 867 L 691.5 871 L 701 880.5 L 706 889.5 L 708 900.5 L 706.5 902 L 703.5 902 L 698.5 904 L 688.5 905 L 687.5 906 L 681.5 906 L 680.5 907 L 671.5 907 L 670.5 908 L 636.5 908 L 636 898.5 L 641 884.5 L 653.5 871 L 661.5 867 L 668.5 866 L 669.5 865 Z " />
</svg>
