<svg xmlns="http://www.w3.org/2000/svg" viewBox="0 0 1024 1024" width="1024" height="1024">
<!-- Monochrome silhouette of the Hyaecord mark. Recolour by setting CSS color / fill: uses currentColor. -->
<path fill="currentColor" stroke="none" stroke-width="0" opacity="1" d="M 516.5 72 L 536.5 72 L 537.5 73 L 542.5 73 L 545.5 74 L 559.5 81 L 571 91.5 Q 576.9 100.6 585 107.5 L 594 121.5 L 594 123.5 L 598 130.5 L 603 145.5 L 603 152.5 L 605 158.5 L 605 165.5 L 606 166.5 L 606 183.5 L 605 184.5 L 605 192.5 L 603 198.5 L 603 204.5 L 599 213.5 L 598 219.5 L 596 221.5 L 594 227.5 Q 590.1 230.1 589 235.5 L 579.5 247 L 576 249.5 L 575.5 251 L 574 251.5 L 574 261.5 L 575 262.5 L 575 284.5 L 576 285.5 L 576 316.5 L 577.5 318 L 589.5 325 L 603 338.5 L 607.5 344 L 614.5 350 L 617.5 350 L 621.5 347 L 628.5 345 L 630.5 343 L 632.5 343 L 635.5 341 L 638.5 341 L 649.5 336 L 653.5 336 L 656.5 334 L 659.5 334 L 663.5 332 L 668.5 332 L 669.5 331 L 673.5 331 L 679.5 329 L 684.5 329 L 685.5 328 L 692.5 328 L 693.5 327 L 707.5 327 L 713.5 329 L 721.5 336 L 724.5 336 L 730.5 339 L 737.5 345 L 740.5 346 L 747 352.5 L 747.5 354 L 749 354.5 L 750.5 357 L 768.5 338 L 781.5 330 L 783.5 330 L 788.5 327 L 791.5 327 L 795.5 325 L 803.5 324 L 804.5 323 L 819.5 323 Q 820.8 325.3 825.5 324 L 831.5 327 L 835.5 327 L 843.5 332 L 845.5 332 L 862 346.5 L 868.5 354 L 877 361.5 L 883 368.5 Q 883.8 373.2 887 375.5 L 893 387.5 L 893 390.5 L 897 399.5 L 897 404.5 L 899 408.5 L 900 418.5 L 901 419.5 L 901 446.5 L 900 447.5 L 900 452.5 L 899 453.5 L 899 456.5 L 898 457.5 L 896 467.5 L 891 478.5 L 888 481.5 L 887 485.5 L 893 497.5 Q 891.8 502.3 894 503.5 L 894 519.5 L 893 520.5 L 893 527.5 L 888 538.5 L 887 543.5 L 884 547.5 L 884 549.5 L 879 556.5 L 879 558.5 L 875 563.5 L 874 566.5 L 870 570.5 L 865 578.5 L 858.5 585 L 852.5 587 L 849 589.5 L 848 598.5 L 843 607.5 L 836.5 616 L 825.5 624 L 823.5 624 L 820.5 626 L 806.5 627 L 805.5 626 L 800.5 626 L 795.5 624 L 786 615.5 L 783.5 610 L 782 611.5 L 782 613.5 L 777 623.5 L 768 636.5 L 762.5 642 L 755.5 645 L 751.5 645 L 747 641.5 Q 744.8 638.7 746 632.5 L 745 631.5 L 745 603.5 L 746 602.5 L 746 596.5 L 743.5 594 L 741.5 594 L 735.5 590 L 730.5 589 L 727 597.5 L 716.5 609 L 710.5 611 L 705 607.5 L 701 600.5 L 701 596.5 L 699 591.5 L 699 581.5 L 697.5 580 Q 695 578 689.5 579 L 689 584.5 L 688 585.5 L 688 592.5 L 685 597.5 L 685 599.5 L 678.5 608 Q 676 610 670.5 609 L 663 602.5 L 657 592.5 Q 657.9 587.1 655.5 585 Q 649.8 585.3 647 588.5 L 648 599.5 L 647 600.5 L 647 607.5 L 646 608.5 L 646 613.5 L 645 614.5 L 644 621.5 L 640.5 626 Q 634.3 627.2 631.5 625 L 621 614.5 L 616.5 607 L 609.5 611 L 606.5 612 L 601.5 612 L 600 613.5 L 599 618.5 L 594 628.5 L 594 632.5 L 590 644.5 L 590 653.5 L 589 654.5 L 589 679.5 L 590 680.5 L 590 688.5 Q 592 689.5 591 693.5 L 594 700.5 L 595 706.5 L 599 712.5 L 599.5 716 L 611.5 702 L 619.5 696 L 627.5 692 L 630.5 692 L 639.5 689 L 648.5 689 L 649.5 690 L 653.5 690 L 657.5 692 L 660.5 692 L 673.5 701 L 681.5 697 Q 685.5 698 686.5 696 L 698.5 696 Q 699.7 698.3 704.5 697 L 712.5 701 L 725 712.5 L 733 726.5 L 735.5 734 L 744 729.5 L 744 710.5 L 745 709.5 L 745 698.5 Q 747.3 697.2 746 692.5 L 748.5 689 Q 751.3 686.8 757.5 688 Q 768.2 696.3 774.5 709 L 779 704.5 L 779 694.5 L 781 690.5 L 781 687.5 L 791.5 675 L 801.5 670 L 813.5 669 L 814.5 670 L 820.5 670 L 825.5 672 L 833.5 677 L 841 684.5 Q 844 692 850.5 696 L 856 700.5 L 864 711.5 L 866 716.5 L 870 720.5 L 875 730.5 L 878 733.5 L 880 738.5 L 888 749.5 L 890 754.5 L 893 757.5 L 895 762.5 L 906 778.5 L 906 780.5 L 909 784.5 L 911 790.5 L 911 793.5 L 912 794.5 Q 911 798.5 913 799.5 L 913 810.5 L 912 811.5 L 912 815.5 L 909 824.5 Q 905.8 826.8 905 831.5 L 900 838.5 L 883.5 855 L 872 863.5 L 872.5 865 L 888.5 873 L 894.5 875 L 900.5 875 L 912.5 879 L 919 884.5 L 924.5 893 L 926.5 893 L 936 902.5 L 937 904.5 L 938 914.5 L 937 915.5 Q 937.8 920.3 936 922.5 L 933 927.5 L 926.5 934 L 919.5 939 L 913.5 942 L 911.5 942 L 905.5 946 L 894.5 949 L 891.5 951 L 887.5 951 L 875.5 955 L 867.5 955 L 866.5 956 Q 862.5 955 861.5 957 L 854.5 957 L 853.5 958 L 819.5 958 L 818.5 957 L 809.5 957 L 804.5 955 L 796.5 955 L 784.5 951 L 780.5 951 L 771.5 947 L 765.5 946 L 758.5 942 L 756.5 942 L 741.5 933 L 737.5 933 L 727.5 937 L 723.5 937 L 722.5 938 L 715.5 939 L 707.5 942 L 698.5 942 L 692.5 944 L 686.5 944 L 685.5 945 L 675.5 945 L 674.5 946 L 647.5 946 L 646.5 945 L 637.5 945 L 636.5 944 L 630.5 944 L 629.5 943 L 623.5 943 L 622.5 942 L 614.5 942 L 602.5 938 L 590.5 936 L 587.5 934 L 580.5 933 L 572.5 929 L 567.5 928 L 560.5 924 L 557.5 924 L 553.5 921 L 546.5 919 L 544.5 917 L 537.5 914 L 522.5 905 L 498.5 888 L 472 862.5 L 462 851.5 Q 457.4 842.1 450.5 835 L 447 832.5 L 446 829.5 L 436 816.5 L 434 813.5 L 434 811.5 L 426 799.5 L 413 771.5 L 412 765.5 L 407 754.5 L 407 751.5 L 403 740.5 L 403 735.5 L 400 727.5 L 399 716.5 L 398 715.5 Q 399.2 710.7 397 709.5 L 397 703.5 L 396 702.5 L 396 695.5 L 395 694.5 L 395 687.5 L 394 686.5 L 394 662.5 L 395 661.5 L 395 648.5 L 396 647.5 Q 394.7 640.7 397 637.5 L 385.5 624 L 380 619.5 L 374.5 612 L 363 601.5 L 359.5 596 L 356 593.5 L 347 580.5 L 341 566.5 L 341 562.5 L 339 556.5 L 339 549.5 L 338 548.5 L 338 532.5 L 339 531.5 L 339 524.5 L 340 523.5 L 340 518.5 L 341 517.5 L 341 510.5 Q 342.8 509.7 342 506.5 L 351 479.5 L 353 476.5 L 354 470.5 L 356 467.5 L 356 465.5 L 358 462.5 L 358 459.5 L 361 454.5 L 364 445.5 L 308.5 445 L 308 467.5 L 309 468.5 L 309 511.5 L 310 512.5 L 310 533.5 L 309 534.5 L 309 547.5 L 307 551.5 L 305 561.5 L 299 573.5 L 299 575.5 L 297 577.5 L 292 587.5 L 273.5 607 L 268.5 611 L 261.5 614 L 258 617.5 Q 253.8 631.2 243.5 639 L 235.5 643 L 221.5 643 Q 213.4 640.1 209 633.5 L 207.5 631 Q 200.5 638 190.5 642 L 181.5 643 L 175.5 641 L 167 634.5 Q 165 629 160.5 626 L 151.5 630 L 139.5 630 Q 131.4 627.1 127 620.5 L 120.5 612 L 114 606.5 L 109 596.5 L 109 592.5 L 105 581.5 Q 107 580.5 105 579.5 Q 106.5 572 103.5 569 L 100.5 572 L 97.5 572 L 97 566.5 L 96 565.5 L 96 548.5 L 97 547.5 L 97 527.5 Q 99.2 526.3 98 521.5 L 99 520.5 L 100 511.5 L 104 502.5 L 105 497.5 L 114 480.5 L 132 459.5 L 132 397.5 L 133 396.5 L 133 370.5 L 134 369.5 L 134 353.5 L 135 352.5 L 135 342.5 L 136 341.5 L 136 325.5 L 137 324.5 L 137 317.5 L 138 316.5 L 138 308.5 L 140 302.5 L 140 290.5 L 141 289.5 L 141 284.5 L 142 283.5 L 143 272.5 L 145 266.5 L 145 257.5 Q 146.8 256.7 146 253.5 L 138 246.5 L 131 236.5 L 118 222.5 L 109 204.5 L 109 201.5 L 105 191.5 L 104 177.5 L 103 176.5 L 103 152.5 L 104 151.5 Q 102.8 146.7 105 145.5 L 105 137.5 L 109 127.5 L 109 124.5 L 112 119.5 L 112 117.5 L 114 115.5 L 114 113.5 L 120 103.5 L 126 95.5 L 134.5 87 L 146.5 79 L 151.5 78 L 159.5 74 Q 164.3 75.3 165.5 73 L 183.5 73 L 184.5 74 L 191.5 75 L 197.5 78 L 200.5 78 L 215.5 87 L 219.5 91 L 222.5 91 L 227.5 88 Q 230.8 88.7 231.5 87 L 238.5 87 L 249.5 92 L 255 97.5 Q 258 105 264.5 109 L 272.5 111 L 278.5 114 L 285 120.5 Q 289.2 129.3 296 135.5 L 296 137.5 L 299.5 141 Q 304.9 142.1 307 146.5 L 309 149.5 L 309 151.5 L 314 157.5 L 314 160.5 L 322 177.5 L 322 180.5 L 324 184.5 L 324 191.5 Q 322 192.5 323 196.5 L 326 199.5 L 329 207.5 L 329 227.5 L 328 228.5 L 328 235.5 L 327 236.5 L 327 244.5 Q 324.7 245.7 326 250.5 L 325 251.5 L 325 255.5 L 323 260.5 L 323 268.5 L 322 269.5 L 322 273.5 L 321 274.5 L 321 278.5 L 319 284.5 L 319 289.5 L 318 290.5 L 318 297.5 L 316 303.5 L 316 309.5 L 367.5 310 L 379.5 297 L 392 289.5 L 391 228.5 L 390 227.5 L 390 186.5 L 394 176.5 L 398 172.5 L 399 159.5 L 401 153.5 L 403 151.5 L 403 148.5 L 407 142.5 L 407 140.5 Q 412.1 131.6 420 125.5 L 422 119.5 L 425 116.5 L 429 109.5 L 436.5 102 L 447 94.5 L 448.5 92 L 457.5 89 L 466.5 89 L 472.5 91 L 474.5 93 L 494.5 79 L 496.5 79 L 509.5 73 L 515.5 73 L 516.5 72 Z " />
<path fill="currentColor" stroke="none" stroke-width="0" opacity="1" d="M 867.5 608 L 876.5 608 L 883 612.5 L 887 619.5 L 887 627.5 Q 883.6 634.6 877.5 639 L 873.5 639 L 869.5 641 L 861.5 641 Q 860.5 643 856.5 642 L 855.5 643 L 849.5 644 L 844.5 647 L 838.5 648 L 837 643.5 L 839 641.5 L 841 635.5 L 850 621.5 L 859.5 612 L 867.5 608 Z " />
<path fill="currentColor" stroke="none" stroke-width="0" opacity="1" d="M 912.5 626 L 922.5 626 L 924 627.5 L 927 631.5 L 927 637.5 L 922.5 643 L 919.5 644 L 914.5 644 L 908.5 642 L 902.5 642 L 900 639.5 L 906.5 630 L 912.5 626 Z " />
<path fill="currentColor" stroke="none" stroke-width="0" opacity="1" d="M 878.5 660 L 890.5 661 L 901 666.5 L 904 673.5 L 904 677.5 L 901 683.5 L 898.5 686 L 895.5 688 L 885.5 688 L 879 683.5 L 872.5 674 L 871 673.5 L 868.5 670 L 865 667.5 Q 864.5 663.5 867.5 663 L 869.5 663 L 872.5 661 L 877.5 661 L 878.5 660 Z " />
</svg>
